<svg width="21" height="21" viewBox="0 0 21 21" fill="none" xmlns="http://www.w3.org/2000/svg">
<g clip-path="url(#clip0_1_29)">
<path d="M11.9345 10.114L9.62435 9.03607C9.42275 8.94247 9.25715 9.04738 9.25715 9.27058V11.301C9.25715 11.5242 9.42275 11.6291 9.62435 11.5355L11.9335 10.4576C12.1361 10.3629 12.1361 10.2086 11.9345 10.114ZM10.2857 0.411499C4.83224 0.411499 0.411438 4.8323 0.411438 10.2858C0.411438 15.7393 4.83224 20.1601 10.2857 20.1601C15.7392 20.1601 20.16 15.7393 20.16 10.2858C20.16 4.8323 15.7392 0.411499 10.2857 0.411499ZM10.2857 14.2972C5.23132 14.2972 5.14287 13.8416 5.14287 10.2858C5.14287 6.73001 5.23132 6.27436 10.2857 6.27436C15.3401 6.27436 15.4286 6.73001 15.4286 10.2858C15.4286 13.8416 15.3401 14.2972 10.2857 14.2972Z" fill="black"/>
</g>
<defs>
<clipPath id="clip0_1_29">
<rect width="20.5714" height="20.5714" fill="white"/>
</clipPath>
</defs>
</svg>
