<svg width="21" height="21" viewBox="0 0 21 21" fill="none" xmlns="http://www.w3.org/2000/svg">
<mask id="mask0_1_34" style="mask-type:luminance" maskUnits="userSpaceOnUse" x="0" y="0" width="21" height="21">
<path d="M0 0H20.5714V20.5714H0V0Z" fill="white"/>
</mask>
<g mask="url(#mask0_1_34)">
<path fill-rule="evenodd" clip-rule="evenodd" d="M20.5714 10.2857C20.5714 15.966 15.966 20.5714 10.2857 20.5714C4.60543 20.5714 0 15.966 0 10.2857C0 4.60543 4.60543 0 10.2857 0C15.966 0 20.5714 4.60543 20.5714 10.2857ZM10.6543 7.59343C9.65429 8.00943 7.65486 8.87057 4.656 10.1769C4.16914 10.3706 3.914 10.56 3.89057 10.7451C3.85114 11.0589 4.24371 11.1823 4.77686 11.3494L5.00229 11.4214C5.52771 11.592 6.234 11.7917 6.60086 11.7994C6.934 11.8063 7.306 11.6691 7.71686 11.388C10.518 9.49657 11.964 8.54057 12.0549 8.52C12.1191 8.50543 12.2083 8.48657 12.2683 8.54057C12.3283 8.59371 12.3223 8.69486 12.3163 8.72229C12.2769 8.88771 10.7391 10.3183 9.942 11.0589C9.69343 11.2894 9.51771 11.4531 9.48171 11.4909C9.4 11.5737 9.31943 11.6534 9.24 11.73C8.75143 12.1997 8.38629 12.5529 9.26057 13.1289C9.68057 13.4057 10.0166 13.6346 10.3517 13.8626C10.7177 14.112 11.0829 14.3606 11.556 14.6709C11.676 14.7509 11.7917 14.8309 11.9031 14.9109C12.3291 15.2151 12.7123 15.4877 13.1854 15.4449C13.4597 15.4191 13.7443 15.1611 13.8883 14.3906C14.2286 12.5683 14.8989 8.622 15.054 6.99514C15.0643 6.86008 15.0585 6.72428 15.0369 6.59057C15.0249 6.48236 14.9722 6.38276 14.8894 6.312C14.7669 6.21171 14.5766 6.19029 14.4909 6.192C14.1043 6.19886 13.5111 6.40543 10.6543 7.59343Z" fill="black"/>
</g>
</svg>
