<svg width="24" height="24" viewBox="0 0 24 24" fill="none" xmlns="http://www.w3.org/2000/svg">
<path d="M22.0001 12.0801C21.9884 14.5353 21.0739 16.9005 19.4308 18.7249C17.7876 20.5493 15.5307 21.7055 13.0901 21.9731V14.8001H15.4401C15.5435 14.8006 15.6435 14.7633 15.7213 14.6951C15.799 14.627 15.8491 14.5327 15.8621 14.4301L16.1161 12.2281C16.1252 12.1703 16.1217 12.1111 16.1056 12.0548C16.0896 11.9985 16.0614 11.9464 16.0231 11.9021C15.9849 11.8579 15.9374 11.8225 15.884 11.7984C15.8306 11.7744 15.7726 11.7624 15.7141 11.7631H13.0901V9.96308C13.0901 9.12708 13.3231 8.55608 14.5181 8.55608H15.6301C15.7405 8.55321 15.8454 8.50724 15.9224 8.428C15.9994 8.34877 16.0424 8.24256 16.0421 8.13208V6.23808C16.0394 6.12763 15.9937 6.02259 15.9147 5.94542C15.8356 5.86824 15.7295 5.82505 15.6191 5.82508H13.8201C13.3147 5.78895 12.8076 5.86352 12.3341 6.04359C11.8605 6.22367 11.432 6.5049 11.0784 6.86768C10.7247 7.23045 10.4545 7.66602 10.2866 8.144C10.1187 8.62197 10.057 9.13084 10.1061 9.63508V11.7511H8.33906C8.28389 11.7511 8.22927 11.7621 8.17843 11.7835C8.12759 11.805 8.08156 11.8364 8.04307 11.8759C8.00457 11.9154 7.97438 11.9623 7.95428 12.0136C7.93419 12.065 7.92459 12.1199 7.92606 12.1751V14.3751C7.92606 14.4846 7.96957 14.5897 8.04703 14.6671C8.12448 14.7446 8.22953 14.7881 8.33906 14.7881H10.1061V21.8251C7.83703 21.3875 5.78959 20.1775 4.31182 18.401C2.83405 16.6244 2.01717 14.3909 2.00006 12.0801C2.00006 9.42791 3.05363 6.88437 4.92899 5.00901C6.80436 3.13365 9.3479 2.08008 12.0001 2.08008C14.6522 2.08008 17.1958 3.13365 19.0711 5.00901C20.9465 6.88437 22.0001 9.42791 22.0001 12.0801Z" fill="black"/>
</svg>
