<svg width="64" height="64" viewBox="0 0 64 64" fill="none" xmlns="http://www.w3.org/2000/svg">
<path d="M32 6.49997C26.9566 6.49997 22.0264 7.99552 17.833 10.7975C13.6395 13.5995 10.3711 17.582 8.44108 22.2415C6.51105 26.9011 6.00606 32.0283 6.98999 36.9748C7.97391 41.9213 10.4025 46.465 13.9688 50.0312C17.535 53.5974 22.0787 56.0261 27.0252 57.01C31.9717 57.9939 37.0989 57.4889 41.7584 55.5589C46.418 53.6289 50.4005 50.3605 53.2025 46.167C56.0045 41.9736 57.5 37.0434 57.5 32C57.4921 25.2394 54.8029 18.758 50.0225 13.9775C45.242 9.19706 38.7606 6.50791 32 6.49997ZM32 54.5C27.5499 54.5 23.1998 53.1804 19.4997 50.708C15.7996 48.2357 12.9157 44.7217 11.2127 40.6103C9.50975 36.499 9.06417 31.975 9.93234 27.6104C10.8005 23.2459 12.9434 19.2367 16.0901 16.0901C19.2368 12.9434 23.2459 10.8005 27.6105 9.9323C31.975 9.06413 36.4991 9.50971 40.6104 11.2127C44.7217 12.9157 48.2357 15.7995 50.7081 19.4996C53.1804 23.1997 54.5 27.5499 54.5 32C54.4934 37.9653 52.1207 43.6844 47.9026 47.9026C43.6845 52.1207 37.9653 54.4934 32 54.5ZM47.5 32C47.5 32.3978 47.342 32.7793 47.0607 33.0606C46.7794 33.3419 46.3978 33.5 46 33.5H32C31.6022 33.5 31.2207 33.3419 30.9394 33.0606C30.658 32.7793 30.5 32.3978 30.5 32V18C30.5 17.6021 30.658 17.2206 30.9394 16.9393C31.2207 16.658 31.6022 16.5 32 16.5C32.3978 16.5 32.7794 16.658 33.0607 16.9393C33.342 17.2206 33.5 17.6021 33.5 18V30.5H46C46.3978 30.5 46.7794 30.658 47.0607 30.9393C47.342 31.2206 47.5 31.6021 47.5 32Z" fill="black"/>
</svg>
